# xmcd
#
# Track frame offsets: 
#        150
#        14535
#        36885
#        54270
#        75405
#        100560
#        115110
#        133185
#        152010
#        166335
#        188167
#
# Disc length: 2998 seconds
#
# Revision: 0
# Processed by: cddbd v1.5.2PL0 Copyright (c) Steve Scherf et al.
# Submitted via: ExactAudioCopy v1.3
#
DISCID=7d0bb40b
DTITLE=Emil &The Ecstatics - Rise Again
DYEAR=2018
DGENRE=Blues
TTITLE0=Change Of Plans
TTITLE1=Rise Again
TTITLE2=Dont Worry I Do
TTITLE3=I'm Leaving You
TTITLE4=The Healing
TTITLE5=Have You Ever
TTITLE6=Come Back
TTITLE7=When Something Is Wrong With My Baby
TTITLE8=On My Feet Again
TTITLE9=Bit By Bit - Live
TTITLE10=Let's Straighten It Out - Live
EXTD=
EXTT0=
EXTT1=
EXTT2=
EXTT3=
EXTT4=
EXTT5=
EXTT6=
EXTT7=
EXTT8=
EXTT9=
EXTT10=
PLAYORDER=
